<svg width="800" height="70" viewBox="0 0 800 70" fill="none" xmlns="http://www.w3.org/2000/svg">
  <!-- Main blood arch -->
  <path d="M35 65 Q80 10 150 30 Q200 70 260 22 Q300 7 335 55 Q400 70 470 20 Q550 25 590 62 Q700 10 765 55" stroke="#FF0040" stroke-width="8" fill="none"/>
  <!-- Left demon horn -->
  <path d="M35 65 Q10 30 60 5 Q30 30 35 65" fill="#300000" stroke="#8A0303" stroke-width="6"/>
  <!-- Right demon horn -->
  <path d="M765 55 Q790 10 745 5 Q770 32 765 55" fill="#300000" stroke="#8A0303" stroke-width="6"/>
  <!-- Blood spikes -->
  <path d="M150 30 Q160 15 170 30" stroke="#8A0303" stroke-width="7"/>
  <path d="M400 70 Q410 50 430 70" stroke="#8A0303" stroke-width="9"/>
  <path d="M590 62 Q600 42 610 62" stroke="#8A0303" stroke-width="7"/>
</svg>